<svg xmlns="http://www.w3.org/2000/svg" version="1.1" xmlns:xlink="http://www.w3.org/1999/xlink" width="2000" height="134" viewBox="0 0 2000 134"><svg xml:space="preserve" width="2000" height="134" data-version="2" data-id="lg_r3h0w5b5ojJDETnOaz" viewBox="0 0 569 134" x="0" y="0"><rect width="100%" height="100%" fill="transparent"></rect><path fill="#398378" d="M136.625 61.216v-.77l1.54-.54q1.54-.46 2.04-1.38.5-.93.5-2.47v-40.35q0-1.54-.54-2.46-.54-.92-2.08-1.46l-1.46-.62v-.77h18.71q11.47 0 16.59 4.2 5.12 4.19 5.12 11.05 0 4.39-2.12 8.04-2.11 3.66-6.96 5.82-4.85 2.15-13.09 2.15h-2.62v14.17q0 3 3 3.93l2.31.69v.77Zm15.63-21.1h2.92q3.78 0 6.16-1.23 2.39-1.23 3.55-4.31 1.15-3.08 1.15-8.55 0-5.54-1.27-8.62-1.27-3.08-3.73-4.28-2.47-1.19-6.16-1.19h-2.62Z"></path><rect width="40.42" height="50.82" x="-20.21" y="-25.41" fill="none" rx="0" ry="0" transform="translate(157.34 36.3)"></rect><path fill="#398378" d="M203.455 62.606q-5.85 0-10.35-2.08-4.51-2.08-7.01-6.59-2.5-4.5-2.5-11.89v-26.57q0-2.92-3.01-3.85l-1.69-.46v-.77h21.33v.77l-2.23.62q-2.85.69-2.85 3.85v28.41q0 7.16 3 10.59 3 3.42 8.62 3.42 5.86 0 9.28-3.62 3.43-3.61 3.43-10.24v-28.26q0-1.54-.5-2.73t-2.04-1.58l-1.93-.46v-.77h10.78v.77l-2.08.54q-1.46.31-1.92 1.46-.46 1.16-.46 2.7v28.18q0 5.62-2.24 9.82-2.23 4.19-6.23 6.46-4.01 2.28-9.4 2.28"></path><rect width="46.89" height="52.21" x="-23.45" y="-26.11" fill="none" rx="0" ry="0" transform="translate(202.84 37)"></rect><path fill="#398378" d="M227.715 61.216v-.77l1.62-.62q1.61-.61 2.04-1.5.42-.88.42-2.42v-40.2q0-1.54-.46-2.46-.46-.92-2-1.46l-1.62-.62v-.77h19.63v.77l-1.38.62q-1.47.54-2 1.5-.54.96-.54 2.5v43.89h11.85q2.85 0 4.2-1.39 1.35-1.38 2.58-4l3-6.47h.77l-.69 13.4Z"></path><rect width="38.11" height="50.82" x="-19.05" y="-25.41" fill="none" rx="0" ry="0" transform="translate(247.27 36.3)"></rect><path fill="#398378" d="M268.605 61.216v-.77l1.54-.54q1.54-.46 2.04-1.38.5-.93.5-2.47v-40.35q0-1.54-.54-2.46-.54-.92-2.08-1.46l-1.46-.62v-.77h18.71q11.47 0 16.59 4.2 5.12 4.19 5.12 11.05 0 4.39-2.12 8.04-2.11 3.66-6.97 5.82-4.85 2.15-13.09 2.15h-2.61v14.17q0 3 3 3.93l2.31.69v.77Zm15.63-21.1h2.92q3.78 0 6.16-1.23 2.39-1.23 3.54-4.31 1.16-3.08 1.16-8.55 0-5.54-1.27-8.62-1.27-3.08-3.74-4.28-2.46-1.19-6.16-1.19h-2.61Z"></path><rect width="40.42" height="50.82" x="-20.21" y="-25.41" fill="none" rx="0" ry="0" transform="translate(289.31 36.3)"></rect><path fill="#398378" d="M336.665 62.606q-4.69 0-9.04-1.7-4.35-1.69-7.78-5.04-3.43-3.35-5.43-8.36-2-5-2-11.7 0-6.62 2-11.63 2-5 5.47-8.35 3.46-3.35 7.81-5.08 4.35-1.74 8.97-1.74 4.7 0 9.05 1.66 4.35 1.66 7.78 5 3.42 3.35 5.43 8.4 2 5.04 2 11.74 0 6.55-2 11.59-2.01 5.04-5.43 8.39-3.43 3.35-7.78 5.08-4.35 1.74-9.05 1.74m0-1.62q4.24 0 6.86-2.27 2.61-2.27 3.81-7.78 1.19-5.5 1.19-15.13 0-9.7-1.19-15.21-1.2-5.5-3.81-7.77-2.62-2.28-6.86-2.28-4.15 0-6.77 2.28-2.62 2.27-3.81 7.77-1.2 5.51-1.2 15.21 0 9.63 1.2 15.13 1.19 5.51 3.81 7.78 2.62 2.27 6.77 2.27"></path><rect width="48.51" height="53.6" x="-24.25" y="-26.8" fill="none" rx="0" ry="0" transform="translate(337.17 36.3)"></rect><path fill="#398378" d="M379.865 61.216v-.77l1.93-.69q1.54-.62 2.38-1.5.85-.89 1.39-2.51l15.86-45.5h6.55l15.63 45.81q.61 1.7 1.38 2.58.77.89 2.39 1.5l.92.31v.77h-19.55v-.77l1.15-.38q1.62-.62 1.96-1.74.35-1.11-.11-2.65l-3.62-11.09h-17.09l-3.7 10.86q-.54 1.69-.35 2.69.2 1 1.81 1.62l1.7.69v.77Zm11.7-18.17h16.1l-7.78-23.95Z"></path><rect width="48.43" height="50.97" x="-24.21" y="-25.48" fill="none" rx="0" ry="0" transform="translate(404.58 36.23)"></rect><path fill="#398378" d="M136.625 125.606v-.77l1.61-.62q1.62-.61 2.04-1.5.43-.89.43-2.43v-40.19q0-1.54-.46-2.46-.47-.93-2.01-1.47l-1.61-.61v-.77h19.63v.77l-1.38.61q-1.47.54-2.01 1.51-.53.96-.53 2.5v43.89h11.85q2.85 0 4.2-1.39 1.35-1.38 2.58-4l3-6.47h.77l-.69 13.4Z"></path><rect width="38.11" height="50.82" x="-19.05" y="-25.41" fill="none" rx="0" ry="0" transform="translate(156.18 100.7)"></rect><path fill="#398378" d="M177.125 125.606v-.77l1.92-.7q1.54-.61 2.39-1.5.85-.88 1.39-2.5l15.86-45.51h6.54l15.64 45.82q.61 1.69 1.38 2.58.77.88 2.39 1.5l.92.31v.77h-19.56v-.77l1.16-.39q1.62-.61 1.96-1.73.35-1.12-.11-2.66l-3.62-11.08h-17.1l-3.69 10.85q-.54 1.7-.35 2.7.19 1 1.81 1.61l1.7.7v.77Zm11.7-18.17h16.1l-7.78-23.95Z"></path><rect width="48.43" height="50.98" x="-24.21" y="-25.49" fill="none" rx="0" ry="0" transform="translate(201.84 100.62)"></rect><path fill="#398378" d="M271.375 126.986q-7.86 0-13.82-3.27-5.97-3.27-9.32-9.32-3.35-6.04-3.35-14.28 0-8.01 3.31-14.01 3.31-6.01 9.59-9.36 6.27-3.35 15.2-3.35 4.09 0 7.59.93 3.5.92 6.66 2.69l.31 10.78h-.77l-4.31-8.01q-1.01-1.92-1.85-2.77-.85-.85-2.16-1.31-1.23-.38-2.27-.58-1.04-.19-2.73-.19-4.78 0-8.44 2.54-3.65 2.54-5.65 8.09-2.01 5.54-2.01 14.55 0 8.93 1.89 14.55 1.89 5.62 5.35 8.2 3.47 2.58 8.01 2.58.69 0 1.35-.11.65-.12 1.27-.27 1.46-.23 1.92-1.23.46-1 .46-2.39v-15.25q0-3-3.08-3.69l-3.54-.93v-.77h21.72v.77l-1.08.31q-2.93.93-2.93 3.85v16.71q-4 2.23-8.12 3.39-4.12 1.15-9.2 1.15"></path><rect width="47.82" height="53.59" x="-23.91" y="-26.8" fill="none" rx="0" ry="0" transform="translate(269.3 100.7)"></rect><path fill="#398378" d="M292.395 125.606v-.77l1.92-.7q1.54-.61 2.39-1.5.85-.88 1.39-2.5l15.86-45.51h6.54l15.63 45.82q.62 1.69 1.39 2.58.77.88 2.39 1.5l.92.31v.77h-19.56v-.77l1.16-.39q1.62-.61 1.96-1.73.35-1.12-.11-2.66l-3.62-11.08h-17.1l-3.69 10.85q-.54 1.7-.35 2.7.19 1 1.81 1.61l1.69.7v.77Zm11.7-18.17h16.1l-7.78-23.95Z"></path><rect width="48.43" height="50.98" x="-24.21" y="-25.49" fill="none" rx="0" ry="0" transform="translate(317.11 100.62)"></rect><path fill="#398378" d="M343.215 125.606v-.77l1.62-.62q1.61-.61 2.04-1.5.42-.89.42-2.43v-40.19q0-1.54-.46-2.46-.46-.93-2-1.47l-1.62-.61v-.77h19.63v.77l-1.38.61q-1.47.54-2 1.51-.54.96-.54 2.5v43.89h11.85q2.85 0 4.2-1.39 1.35-1.38 2.58-4l3-6.47h.77l-.69 13.4Z"></path><rect width="38.11" height="50.82" x="-19.05" y="-25.41" fill="none" rx="0" ry="0" transform="translate(362.77 100.7)"></rect><path fill="#398378" d="M384.105 125.606v-.77l1.61-.62q1.62-.61 2.04-1.5.43-.89.43-2.43v-40.19q0-1.54-.47-2.46-.46-.93-2-1.47l-1.61-.61v-.77h19.63v.77l-1.39.61q-1.46.54-2 1.51-.54.96-.54 2.5v43.89h11.86q2.85 0 4.2-1.39 1.35-1.38 2.58-4l3-6.47h.77l-.69 13.4Z"></path><rect width="38.11" height="50.82" x="-19.05" y="-25.41" fill="none" rx="0" ry="0" transform="translate(403.66 100.7)"></rect><path fill="#398378" d="M424.985 125.606v-.77l1.77-.7q1.31-.53 1.81-1.42.5-.89.5-2.43v-40.19q0-1.54-.42-2.42-.42-.89-1.89-1.43l-1.77-.69v-.77h36.89l.46 11.86h-.77l-3.31-7.24q-.7-1.39-1.47-2.24-.77-.84-2.31-.84h-13.86v22.25h8.24q1.54 0 2.35-.81t1.43-2.19l1.54-3.08h.77v13.86h-.77l-1.54-3.24q-.7-1.38-1.47-2.19t-2.31-.81h-8.24v23.95h15.56q1.54 0 2.38-.81.85-.81 1.39-2.27l3.16-7.24h.77l-.46 11.86Z"></path><rect width="38.89" height="50.82" x="-19.45" y="-25.41" fill="none" rx="0" ry="0" transform="translate(444.93 100.7)"></rect><path fill="#398378" d="M493.205 126.986q-7.85 0-13.82-3.27-5.96-3.27-9.31-9.32-3.35-6.04-3.35-14.28 0-8.01 3.31-14.01 3.31-6.01 9.58-9.36 6.28-3.35 15.21-3.35 4.08 0 7.59.93 3.5.92 6.66 2.69l.3 10.78h-.77l-4.31-8.01q-1-1.92-1.85-2.77-.84-.85-2.15-1.31-1.23-.38-2.27-.58-1.04-.19-2.74-.19-4.77 0-8.43 2.54t-5.66 8.09q-2 5.54-2 14.55 0 8.93 1.89 14.55 1.88 5.62 5.35 8.2 3.46 2.58 8.01 2.58.69 0 1.34-.11.66-.12 1.27-.27 1.47-.23 1.93-1.23.46-1 .46-2.39v-15.25q0-3-3.08-3.69l-3.54-.93v-.77h21.71v.77l-1.07.31q-2.93.93-2.93 3.85v16.71q-4 2.23-8.12 3.39-4.12 1.15-9.21 1.15"></path><rect width="47.81" height="53.59" x="-23.91" y="-26.8" fill="none" rx="0" ry="0" transform="translate(491.13 100.7)"></rect><path fill="#398378" d="M514.235 125.606v-.77l1.92-.7q1.54-.61 2.39-1.5.84-.88 1.38-2.5l15.87-45.51h6.54l15.63 45.82q.62 1.69 1.39 2.58.77.88 2.38 1.5l.93.31v.77h-19.56v-.77l1.16-.39q1.61-.61 1.96-1.73.35-1.12-.12-2.66l-3.62-11.08h-17.09l-3.7 10.85q-.53 1.7-.34 2.7.19 1 1.81 1.61l1.69.7v.77Zm11.7-18.17h16.09l-7.77-23.95Z"></path><rect width="48.43" height="50.98" x="-24.21" y="-25.49" fill="none" rx="0" ry="0" transform="translate(538.95 100.62)"></rect><path fill="#398378" fill-rule="evenodd" d="M75.662 126.074 76.08 8.173c-20.249.553-22.452 13.584-22.452 20.694v8.738c0 4.93-1.148 12.012 6.831 17.304h.03c5.516 3.638 4.923 12.212 4.923 15.394l.895 55.77h.021a4.678 4.678 0 1 0 9.314 0zM38.738 36.816c0 .207.033-.198 0 0"></path><path fill="#398378" fill-rule="evenodd" d="M38.738 36.816V11.82a3.569 3.569 0 1 0-7.137 0v21.877h-.005a3.024 3.024 0 0 1-6.044 0h-.003V11.82a3.568 3.568 0 1 0-7.136 0v21.877h-.003a2.96 2.96 0 0 1-5.92 0h-.018V11.82a3.568 3.568 0 1 0-7.136 0v24.157c0 .211.022.417.057.62v1.57c0 4.929-1.146 12.01 6.83 17.303h.032c5.515 3.639 4.921 13.052 4.921 16.232l.184 55.212a4.321 4.321 0 0 0 8.643 0l.896-57.028c0-3.18-.594-10.918 4.92-14.556h.032c7.85-5.209 6.92-13.597 6.887-18.514m21.412 94.417c-6.58-8.89-6.307-8.552-14.086-8.552s-7.53-.299-14.086 8.552M52.84 2.762l.003-.029A1.403 1.403 0 0 0 51.44 1.33l-.018.001-.001-.001h-9.61c-.027 0-.051.005-.078.007-.038.003-.078.004-.111.011a1.38 1.38 0 0 0-1.17 1.645l-.004.001.726 6.88h10.91l.76-7.108z"></path></svg></svg>